
<svg height="13" width="28"  viewBox="0 0 85.315063 38.666668"><defs id="defs6"><clipPath id="clipPath18" clipPathUnits="userSpaceOnUse"><path id="path16" d="m0 29h63.986v-29h-63.986z"/></clipPath></defs><g id="g10" transform="matrix(1.3333 0 0 -1.3333 0 38.667)"><g id="g12"><g id="g14" clip-path="url(#clipPath18)"><g id="g20" transform="translate(59.753,24.752)"><path id="path22" d="m0 0c-2.735 2.74-6.373 4.248-10.241 4.248s-7.506-1.508-10.241-4.248c-0.002-0.002-0.004-0.005-0.006-0.007-0.002-0.001-0.003-0.003-0.004-0.004l-17.375-17.665c0-0.001 0-0.002-0.001-0.002-1.98-1.982-4.611-3.074-7.41-3.074-2.8 0-5.431 1.092-7.411 3.074-4.088 4.095-4.088 10.758 0 14.853 1.98 1.981 4.611 3.073 7.411 3.073 2.799 0 5.43-1.092 7.411-3.073 0.012-0.013 0.026-0.021 0.039-0.032 0.012-0.012 0.021-0.028 0.035-0.039l3.692-3.339c0.383-0.347 0.863-0.517 1.341-0.517 0.545 0 1.09 0.223 1.485 0.658 0.74 0.821 0.676 2.084-0.143 2.825l-3.692 3.339c-0.006 0.006-0.013 0.009-0.019 0.014-2.725 2.684-6.322 4.164-10.149 4.164-3.868 0-7.506-1.508-10.242-4.247-5.644-5.653-5.644-14.853 0-20.505 2.736-2.74 6.374-4.248 10.242-4.248s7.505 1.508 10.241 4.248c0.002 0.002 0.004 0.005 0.006 0.007 0.002 0.001 0.003 0.003 0.004 0.004l17.375 17.665c0 0.001 0 0.002 0.001 0.002 1.979 1.982 4.61 3.074 7.41 3.074s5.43-1.092 7.411-3.074c4.088-4.095 4.088-10.758 0-14.853-1.981-1.981-4.611-3.073-7.411-3.073s-5.431 1.092-7.411 3.073c-0.012 0.012-0.026 0.019-0.037 0.031-0.013 0.012-0.022 0.027-0.036 0.04l-3.693 3.339c-0.818 0.742-2.083 0.677-2.824-0.141-0.741-0.819-0.678-2.084 0.14-2.825l3.694-3.34c0.007-0.007 0.015-0.011 0.023-0.018 2.723-2.68 6.319-4.159 10.144-4.159 3.868 0 7.506 1.508 10.241 4.247 5.645 5.653 5.645 14.853 0 20.505" fill="#231f20"/></g></g></g></g></svg>
