<svg xmlns="http://www.w3.org/2000/svg" viewBox="0 0 85.333336 80" height="26" width="28"><defs><clipPath id="a" clipPathUnits="userSpaceOnUse"><path d="M0 60h64V0H0z"/></clipPath></defs><g clip-path="url(#a)" transform="matrix(1.33333 0 0 -1.33333 0 80)"><path d="M62 4H2C.896 4 0 3.104 0 2 0 .895.896 0 2 0h60c1.105 0 2 .895 2 2 0 1.104-.895 2-2 2M6 31.998c1.104 0 2-.896 2-2 0-.492-.186-.938-.48-1.285l-.809-.578c-.221-.084-.459-.137-.711-.137-1.103 0-2 .898-2 2 0 1.104.897 2 2 2m12-22c-1.103 0-2 .898-2 2 0 .492.186.938.482 1.287l.807.576c.223.086.461.137.711.137 1.104 0 2-.896 2-2 0-1.102-.896-2-2-2M30 50c1.104 0 2-.898 2-2 0-1.104-.896-2-2-2-1.103 0-2 .896-2 2 0 1.102.897 2 2 2m28 6c1.104 0 2-.898 2-2 0-1.104-.896-2-2-2-1.103 0-2 .896-2 2 0 1.102.897 2 2 2M44 26c-1.103 0-2 .896-2 2 0 1.102.897 2 2 2 1.104 0 2-.898 2-2 0-1.104-.896-2-2-2M6 23.998c.445 0 .879.053 1.296.145l6.013-8.416C12.492 14.703 12 13.408 12 11.998c0-3.309 2.691-6 6-6s6 2.691 6 6c0 1.689-.704 3.217-1.832 4.307l7.348 25.718c.16-.011.321-.023.484-.023.465 0 .914.059 1.349.158l7.922-10.478C38.479 30.662 38 29.387 38 28c0-3.309 2.691-6 6-6s6 2.691 6 6c0 1.473-.535 2.82-1.418 3.865l8.293 16.244c.365-.07.74-.109 1.125-.109 3.309 0 6 2.691 6 6s-2.691 6-6 6-6-2.691-6-6c0-1.473.535-2.82 1.418-3.865l-8.293-16.244c-.365.068-.74.109-1.125.109-.463 0-.914-.059-1.348-.158L34.73 44.32C35.523 45.338 36 46.611 36 48c0 3.309-2.691 6-6 6s-6-2.691-6-6c0-1.689.705-3.217 1.832-4.307l-7.348-25.718c-.16.011-.32.023-.484.023-.445 0-.877-.053-1.295-.145l-6.012 8.416C11.51 27.295 12 28.59 12 29.998c0 3.309-2.691 6-6 6s-6-2.691-6-6 2.691-6 6-6" fill="#231f20"/></g></svg>