<?xml version="1.0" encoding="UTF-8" standalone="no"?>
<svg id="svg2" xmlns:rdf="http://www.w3.org/1999/02/22-rdf-syntax-ns#" xmlns="http://www.w3.org/2000/svg" xml:space="preserve" height="26" width="28" version="1.1" xmlns:cc="http://creativecommons.org/ns#" viewBox="0 0 85.333336 80" xmlns:dc="http://purl.org/dc/elements/1.1/"><metadata id="metadata8"><rdf:RDF><cc:Work rdf:about=""><dc:format>image/svg+xml</dc:format><dc:type rdf:resource="http://purl.org/dc/dcmitype/StillImage"/></cc:Work></rdf:RDF></metadata><defs id="defs6"><clipPath id="clipPath18" clipPathUnits="userSpaceOnUse"><path id="path16" d="m0 60h64v-60h-64z"/></clipPath></defs><g id="g10" transform="matrix(1.3333 0 0 -1.3333 0 80)"><g id="g12"><g id="g14" clip-path="url(#clipPath18)"><g id="g20" transform="translate(62,4)"><path id="path22" d="m0 0h-60c-1.104 0-2-0.896-2-2 0-1.105 0.896-2 2-2h60c1.105 0 2 0.895 2 2 0 1.104-0.895 2-2 2" fill="#231f20"/></g><g id="g24" transform="translate(6,31.998)"><path id="path26" d="m0 0c1.104 0 2-0.896 2-2 0-0.492-0.186-0.938-0.48-1.285l-0.809-0.578c-0.221-0.084-0.459-0.137-0.711-0.137-1.103 0-2 0.898-2 2 0 1.104 0.897 2 2 2m12-22c-1.103 0-2 0.898-2 2 0 0.492 0.186 0.938 0.482 1.287l0.807 0.576c0.223 0.086 0.461 0.137 0.711 0.137 1.104 0 2-0.896 2-2 0-1.102-0.896-2-2-2m12 40.002c1.104 0 2-0.898 2-2 0-1.104-0.896-2-2-2-1.103 0-2 0.896-2 2 0 1.102 0.897 2 2 2m28 6c1.104 0 2-0.898 2-2 0-1.104-0.896-2-2-2-1.103 0-2 0.896-2 2 0 1.102 0.897 2 2 2m-14-30c-1.103 0-2 0.896-2 2 0 1.102 0.897 2 2 2 1.104 0 2-0.898 2-2 0-1.104-0.896-2-2-2m-38-2.002c0.445 0 0.879 0.053 1.296 0.145l6.013-8.416c-0.817-1.024-1.309-2.319-1.309-3.729 0-3.309 2.691-6 6-6s6 2.691 6 6c0 1.689-0.704 3.217-1.832 4.307l7.348 25.718c0.16-0.011 0.321-0.023 0.484-0.023 0.465 0 0.914 0.059 1.349 0.158l7.922-10.478c-0.792-1.018-1.271-2.293-1.271-3.68 0-3.309 2.691-6 6-6s6 2.691 6 6c0 1.473-0.535 2.82-1.418 3.865l8.293 16.244c0.365-0.07 0.74-0.109 1.125-0.109 3.309 0 6 2.691 6 6s-2.691 6-6 6-6-2.691-6-6c0-1.473 0.535-2.82 1.418-3.865l-8.293-16.244c-0.365 0.068-0.74 0.109-1.125 0.109-0.463 0-0.914-0.059-1.348-0.158l-7.922 10.478c0.793 1.018 1.27 2.291 1.27 3.68 0 3.309-2.691 6-6 6s-6-2.691-6-6c0-1.689 0.705-3.217 1.832-4.307l-7.348-25.718c-0.16 0.011-0.32 0.023-0.484 0.023-0.445 0-0.877-0.053-1.295-0.145l-6.012 8.416c0.817 1.026 1.307 2.321 1.307 3.729 0 3.309-2.691 6-6 6s-6-2.691-6-6 2.691-6 6-6" fill="#231f20"/></g></g></g></g></svg>
