
<svg  height="27" width="30"  viewBox="0 0 85.333336 77.333336"><defs id="defs6"><clipPath id="clipPath18" clipPathUnits="userSpaceOnUse"><path id="path16" d="m0 58h64v-58h-64z"/></clipPath></defs><g id="g10" transform="matrix(1.3333 0 0 -1.3333 0 77.333)"><g id="g12"><g id="g14" clip-path="url(#clipPath18)"><g id="g20" transform="translate(34.123,12.873)"><path id="path22" d="m0 0c-1.17-1.172-3.072-1.172-4.242 0-1.172 1.172-1.172 3.074 0 4.245 1.17 1.173 3.07 1.171 4.242-0.001 1.17-1.17 1.172-3.072 0-4.244m-0.123 8.834v16.299c-0.002 1.096-0.898 1.987-2 1.988-1.104 0-2.002-0.892-2-1.988l0.002-16.299c-1.08-0.321-2.098-0.908-2.951-1.761-2.733-2.735-2.735-7.168 0-9.903 2.736-2.734 7.17-2.731 9.9 0.001 2.733 2.733 2.734 7.168 0 9.902-0.853 0.853-1.871 1.44-2.951 1.761" fill="#231f20"/></g><g id="g24" transform="translate(32,44)"><path id="path26" d="m0 0c1.105 0 2 0.896 2 2v4c0 1.105-0.895 2-2 2-1.104 0-2-0.895-2-2v-4c0-1.104 0.896-2 2-2" fill="#231f20"/></g><g id="g28" transform="translate(12,28)"><path id="path30" d="m0 0h-4c-1.104 0-2-0.895-2-2 0-1.104 0.896-2 2-2h4c1.105 0 2 0.896 2 2 0 1.105-0.895 2-2 2" fill="#231f20"/></g><g id="g32" transform="translate(56,28)"><path id="path34" d="m0 0h-4c-1.104 0-2-0.895-2-2 0-1.104 0.896-2 2-2h4c1.105 0 2 0.896 2 2 0 1.105-0.895 2-2 2" fill="#231f20"/></g><g id="g36" transform="translate(50.385 44.385)"><path id="path38" d="m0 0c-0.781 0.781-2.047 0.781-2.828 0.001l-2.828-2.829c-0.781-0.781-0.781-2.047-0.002-2.828 0.39-0.391 0.904-0.586 1.416-0.586s1.023 0.195 1.414 0.586l2.828 2.828c0.781 0.781 0.781 2.047 0 2.828" fill="#231f20"/></g><g id="g40" transform="translate(16.443 44.385)"><path id="path42" d="m0 0c-0.781 0.781-2.049 0.781-2.83 0-0.779-0.781-0.779-2.047 0.002-2.828l2.828-2.828c0.391-0.391 0.902-0.586 1.414-0.586s1.024 0.195 1.414 0.586c0.781 0.781 0.781 2.047 0 2.828z" fill="#231f20"/></g><g id="g44" transform="translate(49.32 4)"><path id="path46" d="m0 0h-34.641c-6.797 5.35-10.679 13.33-10.679 22 0 15.439 12.56 28 28 28 15.439 0 28-12.561 28-28 0-8.67-3.883-16.65-10.68-22m-17.32 54c-17.645 0-32-14.355-32-32 0-10.158 4.666-19.488 12.799-25.6 0.345-0.259 0.767-0.4 1.201-0.4h36c0.433 0 0.855 0.141 1.201 0.4 8.135 6.112 12.799 15.442 12.799 25.6 0 17.645-14.356 32-32 32" fill="#231f20"/></g></g></g></g></svg>
