<svg xmlns="http://www.w3.org/2000/svg" viewBox="0 0 85.3 69.3" height="23" width="28"><defs><clipPath id="a" clipPathUnits="userSpaceOnUse"><path d="M0 52h64V0H0z"/></clipPath></defs><g clip-path="url(#a)" transform="matrix(1.33333 0 0 -1.33333 0 69.3)"><path d="M18 44h44a2 2 0 010 4H18a2 2 0 010-4M62 28H18a2 2 0 010-4h44a2 2 0 010 4M62 8H18a2 2 0 010-4h44a2 2 0 010 4M8 24H4v4h4zm2 8H2a2 2 0 01-2-2v-8c0-1.1.9-2 2-2h8a2 2 0 012 2v8a2 2 0 01-2 2M8 44H4v4h4zm2 8H2a2 2 0 01-2-2v-8c0-1.1.9-2 2-2h8a2 2 0 012 2v8a2 2 0 01-2 2M8 4H4v4h4zm2 8H2a2 2 0 01-2-2V2C0 .9.9 0 2 0h8a2 2 0 012 2v8a2 2 0 01-2 2" fill="#231f20"/></g></svg>