<svg xmlns="http://www.w3.org/2000/svg" viewBox="0 0 85.3 38.7" height="13" width="28"><defs><clipPath id="a" clipPathUnits="userSpaceOnUse"><path d="M0 29h64V0H0z"/></clipPath></defs><g clip-path="none" transform="matrix(1.33333 0 0 -1.33333 0 38.7)"><path d="M59.8 24.8a14.4 14.4 0 01-20.5 0L21.9 7A10.4 10.4 0 007 7 10.5 10.5 0 0014.5 25c2.8 0 5.4-1 7.4-3v-.1l3.8-3.4a2 2 0 012.8.2c.7.8.7 2-.2 2.8l-3.7 3.3a14.4 14.4 0 01-20.4 0A14.5 14.5 0 0114.5 0c3.8 0 7.5 1.5 10.2 4.2L42.1 22a10.4 10.4 0 0014.8 0A10.5 10.5 0 0049.5 4c-2.8 0-5.4 1-7.4 3v.1l-3.8 3.4a2 2 0 11-2.6-3l3.6-3.3a14.4 14.4 0 0120.5 0 14.5 14.5 0 010 20.6" fill="#231f20"/></g></svg>