<svg xmlns="http://www.w3.org/2000/svg" viewBox="0 0 45.332 85.333" fill="black" height="28" width="15"><defs><clipPath id="a" clipPathUnits="userSpaceOnUse"><path d="M0 64h33.999V0H0z"/></clipPath></defs><g clip-path="url(#a)" transform="matrix(1.33333 0 0 -1.33333 0 85.333)"><path d="M7.014 24h3.831a2 2 0 001.964-2.378L10.476 9.487 23.814 26H21.25c-.722 0-1.389.391-1.744 1.021-.353.63-.34 1.402.036 2.02L27.44 42H22a1.999 1.999 0 00-1.748 2.972L28.601 60H10.5L4.665 40h6.084c.67 0 1.296-.336 1.666-.895a1.993 1.993 0 00.177-1.882zM6.998 0a2.002 2.002 0 00-1.963 2.378L8.423 20H4a2 2 0 00-1.842 2.777L7.735 36H2A2.001 2.001 0 00.08 38.56l7 24A2 2 0 009 64h23a2 2 0 001.747-2.972L25.398 46H31c.723 0 1.39-.391 1.745-1.02a2.005 2.005 0 00-.037-2.021L24.81 30H28a1.999 1.999 0 001.555-3.257l-21-26A2.003 2.003 0 006.998 0"/></g></svg>