<svg xmlns="http://www.w3.org/2000/svg" viewBox="0 0 85.3 80" height="26" width="28"><defs><clipPath id="a" clipPathUnits="userSpaceOnUse"><path d="M0 60h64V0H0z"/></clipPath></defs><g clip-path="url(#a)" transform="matrix(1.33333 0 0 -1.33333 0 80)"><path d="M62 4H2a2 2 0 010-4h60a2 2 0 110 4M6 32a2 2 0 001.5-3.3l-.8-.6A2 2 0 106 32m12-22a2 2 0 00-1.5 3.3l.8.6.7.1a2 2 0 000-4m12 40a2 2 0 100-4 2 2 0 000 4m28 6a2 2 0 100-4 2 2 0 000 4M44 26a2 2 0 100 4 2 2 0 000-4M6 24l1.3.1 6-8.4a6 6 0 118.9.6L29.5 42h.5c.5 0 1 0 1.3.2l8-10.5A6 6 0 0144 22a6 6 0 014.6 9.9L56.9 48a6 6 0 11-3.5 2L45.1 34a6.1 6.1 0 01-2.4 0l-8 10.4a6 6 0 11-8.9-.6L18.5 18H18a6 6 0 01-1.3-.1l-6 8.4A6 6 0 116 24" fill="#231f20"/></g></svg>