<svg xmlns="http://www.w3.org/2000/svg" viewBox="0 0 85.3 77.3" height="27" width="30"><defs><clipPath id="a" clipPathUnits="userSpaceOnUse"><path d="M0 58h64V0H0z"/></clipPath></defs><g clip-path="none" transform="matrix(1.33333 0 0 -1.33333 0 77.3)"><path d="M34.1 12.9A3 3 0 1030 17 3 3 0 0034 13m-.1 8.8V38a2 2 0 01-4 0V21.7a7 7 0 114 0M32 44a2 2 0 012 2v4a2 2 0 11-4 0v-4c0-1.1.9-2 2-2M12 28H8a2 2 0 010-4h4a2 2 0 010 4M56 28h-4a2 2 0 010-4h4a2 2 0 010 4M50.4 44.4a2 2 0 01-2.8 0l-2.9-2.8a2 2 0 012.9-2.9l2.8 2.9c.8.7.8 2 0 2.8M16.4 44.4a2 2 0 01-2.8-2.8l2.8-2.9a2 2 0 012.9 0c.8.8.8 2 0 2.9z" fill="#231f20"/><path d="M49.3 4H14.7a28 28 0 1034.6 0M32 58A32 32 0 0112.8.4 2 2 0 0114 0h36c.4 0 .9.1 1.2.4A32 32 0 0132 58" fill="#231f20"/></g></svg>